<?xml version="1.0" standalone="no"?>
<!DOCTYPE svg PUBLIC "-//W3C//DTD SVG 20010904//EN"
 "http://www.w3.org/TR/2001/REC-SVG-20010904/DTD/svg10.dtd">
<svg version="1.0" xmlns="http://www.w3.org/2000/svg"
 width="1241.000000pt" height="1241.000000pt" viewBox="0 0 1241.000000 1241.000000"
 preserveAspectRatio="xMidYMid meet">

<g transform="translate(0.000000,1241.000000) scale(0.100000,-0.100000)"
fill="#FFFFFF" stroke="none">
<path d="M5940 12404 c-1758 -87 -3325 -855 -4467 -2188 -608 -709 -1069
-1611 -1293 -2531 -123 -506 -173 -936 -173 -1480 0 -367 13 -566 59 -885 252
-1748 1229 -3297 2701 -4278 776 -517 1629 -843 2553 -976 319 -46 518 -59
885 -59 367 0 566 13 885 59 1748 252 3297 1229 4278 2701 517 776 843 1629
976 2553 46 319 59 518 59 885 0 367 -13 566 -59 885 -252 1748 -1229 3297
-2701 4278 -873 582 -1851 924 -2903 1017 -171 15 -650 26 -800 19z m810 -93
c436 -46 783 -111 1149 -216 2346 -674 4077 -2692 4385 -5115 35 -277 41 -382
41 -775 0 -393 -6 -498 -41 -775 -308 -2423 -2039 -4441 -4385 -5115 -372
-107 -731 -174 -1164 -217 -175 -17 -885 -17 -1060 0 -433 43 -792 110 -1164
217 -2346 674 -4077 2692 -4385 5115 -35 275 -41 382 -41 775 0 393 6 500 41
775 237 1866 1314 3509 2939 4487 783 472 1705 769 2610 843 72 5 148 12 170
14 82 8 804 -3 905 -13z"/>
<path d="M6685 11951 c-95 -43 -140 -138 -140 -296 0 -84 4 -107 22 -142 29
-53 65 -79 139 -98 127 -33 227 19 276 144 30 80 31 227 1 292 -46 102 -189
150 -298 100z m185 -60 c50 -37 65 -78 65 -181 0 -84 -3 -102 -29 -153 -38
-78 -72 -99 -149 -94 -66 4 -103 26 -130 78 -15 27 -18 52 -15 129 6 172 73
259 188 245 25 -3 56 -13 70 -24z"/>
<path d="M4825 11822 c-49 -13 -92 -26 -94 -28 -2 -2 0 -19 3 -39 6 -31 10
-34 31 -29 14 3 25 5 25 3 -5 -41 -50 -193 -56 -190 -5 2 -37 34 -72 72 -56
60 -60 68 -42 74 16 5 19 12 14 33 -4 15 -10 31 -14 35 -7 8 -159 -27 -186
-42 -7 -4 -8 -17 -2 -40 8 -27 13 -32 30 -27 18 4 44 -16 130 -102 97 -95 111
-113 125 -162 9 -30 18 -60 20 -66 2 -7 -10 -16 -27 -22 -27 -10 -30 -14 -24
-39 4 -15 9 -31 13 -34 3 -4 57 7 119 25 l114 31 -6 34 c-7 43 -8 44 -40 31
-24 -9 -28 -7 -37 18 -30 79 -32 115 -10 197 53 195 61 215 82 215 16 0 18 5
13 28 -12 50 -14 50 -109 24z"/>
<path d="M7780 11771 c0 -5 -3 -16 -6 -24 -3 -10 4 -17 21 -21 19 -5 25 -11
21 -22 -3 -9 -34 -106 -68 -216 l-62 -200 -28 6 c-21 4 -28 1 -33 -15 -4 -11
-5 -22 -3 -24 1 -2 43 -15 92 -30 72 -22 90 -25 97 -13 13 20 6 31 -27 41 -16
5 -30 11 -32 12 -6 5 60 205 67 205 4 0 47 -13 96 -30 49 -16 92 -30 96 -30 4
0 9 11 11 24 5 23 0 26 -93 53 -55 15 -99 33 -99 38 0 6 12 47 28 92 l27 81
103 -32 102 -31 -6 -42 c-5 -36 -3 -43 10 -43 9 0 19 0 24 0 6 -1 45 113 39
115 -3 1 -339 105 -359 111 -10 3 -18 1 -18 -5z"/>
<path d="M3546 11335 c-110 -57 -203 -108 -209 -114 -6 -6 5 -35 29 -79 l38
-70 31 15 c16 9 31 17 33 18 2 2 -6 21 -17 44 l-21 41 48 24 48 24 92 -177 92
-177 -26 -20 c-24 -17 -25 -21 -13 -46 7 -16 16 -28 21 -28 21 0 208 103 208
114 0 6 -7 22 -16 34 -14 20 -17 21 -43 8 l-27 -15 -92 175 c-51 96 -92 178
-92 182 0 4 20 18 45 30 l45 22 20 -40 21 -40 32 16 c17 9 33 18 35 19 5 4
-72 145 -78 145 -3 0 -95 -47 -204 -105z"/>
<path d="M5825 11099 c-1745 -138 -3279 -1187 -4041 -2764 -414 -857 -568
-1817 -443 -2775 183 -1411 983 -2681 2181 -3464 985 -642 2155 -908 3328
-755 1412 184 2681 983 3464 2181 643 985 908 2153 755 3328 -183 1411 -983
2681 -2181 3464 -700 457 -1482 721 -2327 786 -157 12 -577 11 -736 -1z m846
-84 c1531 -150 2894 -1015 3684 -2336 303 -506 517 -1086 614 -1666 49 -296
65 -484 65 -808 0 -324 -16 -512 -65 -808 -233 -1388 -1073 -2615 -2290 -3342
-608 -364 -1296 -589 -2019 -661 -238 -24 -672 -24 -910 0 -1135 112 -2161
596 -2960 1396 -381 380 -672 786 -915 1272 -260 521 -419 1079 -481 1683 -24
233 -24 687 0 920 117 1139 598 2157 1396 2955 545 546 1217 957 1945 1190
373 119 843 203 1245 224 141 7 536 -4 691 -19z"/>
<path d="M6467 10231 c-20 -10 -48 -22 -62 -25 -13 -3 -36 -22 -51 -41 -14
-19 -31 -35 -36 -35 -6 0 -26 14 -45 30 -41 36 -62 39 -56 7 4 -18 -7 -32 -46
-65 -27 -23 -52 -50 -55 -60 -3 -9 -19 -25 -36 -34 -21 -12 -30 -25 -30 -42 0
-15 -8 -30 -21 -36 -18 -10 -20 -18 -15 -58 3 -26 10 -101 16 -167 15 -156 18
-166 64 -190 50 -26 66 -58 59 -116 -6 -50 -6 -50 65 -105 32 -26 32 -27 26
-88 -5 -53 -3 -65 16 -88 12 -16 29 -28 38 -28 25 0 92 -58 92 -80 0 -10 -23
-38 -52 -61 -28 -24 -84 -85 -125 -136 -71 -90 -136 -144 -245 -206 -103 -59
-165 -168 -204 -359 -35 -172 -81 -302 -163 -467 -67 -134 -71 -144 -71 -210
0 -87 21 -202 67 -364 20 -70 33 -130 29 -134 -9 -9 -334 14 -447 33 -52 8
-148 30 -214 49 -323 94 -592 114 -805 59 -119 -30 -176 -1 -316 158 -111 126
-173 168 -251 168 -61 0 -111 -18 -156 -56 -106 -89 -380 -492 -427 -628 -53
-156 -36 -280 78 -565 44 -109 47 -122 46 -206 -1 -101 -15 -144 -82 -243 -41
-59 -141 -160 -179 -181 -31 -16 -29 -50 6 -98 59 -81 165 -93 288 -33 104 52
168 138 204 277 23 91 24 166 4 288 -8 50 -15 138 -15 196 0 91 4 121 31 205
29 92 31 114 39 314 9 237 19 287 73 366 61 90 154 108 239 48 62 -44 81 -75
86 -141 3 -50 0 -65 -27 -113 -60 -106 -100 -197 -120 -270 -22 -79 -46 -269
-56 -445 -11 -185 -53 -315 -154 -473 -84 -131 -93 -157 -92 -286 1 -107 0
-114 -28 -157 -35 -57 -122 -122 -276 -208 -65 -36 -126 -77 -136 -91 -22 -30
-50 -136 -74 -279 -14 -80 -16 -132 -11 -225 21 -386 21 -378 -9 -472 -36
-113 -32 -183 18 -309 48 -123 71 -216 63 -258 -4 -22 -26 -57 -61 -96 -63
-71 -71 -106 -31 -146 54 -54 180 -95 296 -95 84 0 133 14 173 50 28 24 32 35
32 77 0 79 -35 134 -167 263 -137 135 -151 160 -151 275 1 136 83 413 187 631
117 245 163 288 429 408 337 152 419 209 586 409 137 165 142 169 201 196 54
24 110 27 150 6 50 -26 61 -62 85 -300 34 -338 102 -464 298 -559 137 -65 162
-94 196 -219 63 -234 198 -344 601 -492 165 -60 247 -100 264 -127 7 -11 6
-28 -3 -55 -19 -57 -11 -102 21 -126 22 -16 43 -20 100 -20 117 0 176 44 165
122 -9 73 -57 114 -182 158 -67 23 -87 36 -125 78 -123 135 -269 273 -405 381
-256 202 -400 368 -495 569 -59 124 -72 175 -71 293 0 107 17 176 60 244 52
82 88 78 222 -21 177 -130 262 -159 530 -181 245 -21 425 -65 644 -160 61 -26
146 -59 190 -74 117 -38 388 -101 560 -131 292 -51 369 -78 435 -153 74 -83
68 -146 -28 -348 -46 -97 -82 -189 -102 -264 -35 -128 -58 -173 -104 -201 -50
-30 -107 -25 -207 21 -73 34 -93 40 -128 34 -34 -5 -47 -2 -87 25 -26 17 -56
31 -65 31 -23 0 -45 -34 -53 -82 -14 -76 35 -274 80 -328 34 -39 67 -39 128 3
130 87 194 98 309 52 111 -46 181 -45 237 1 29 25 30 29 30 108 0 45 5 109 11
141 6 33 69 196 145 372 74 173 142 343 152 378 29 112 3 166 -162 328 -80 79
-136 114 -234 148 -105 36 -183 117 -196 201 -7 45 12 136 39 187 39 77 116
118 188 102 73 -17 135 -72 266 -236 52 -66 154 -181 226 -255 72 -74 151
-164 175 -200 67 -99 115 -146 207 -201 117 -71 165 -124 267 -295 109 -184
193 -292 293 -381 150 -133 205 -189 232 -233 25 -43 26 -50 23 -180 -1 -74 0
-149 3 -166 14 -83 94 -98 212 -39 75 38 158 115 169 159 11 47 -24 96 -111
155 -100 66 -119 91 -125 161 -5 54 -5 55 -70 99 -85 59 -202 178 -293 300
-97 128 -279 421 -329 530 -92 197 -109 228 -153 280 -149 174 -391 584 -485
820 -51 129 -72 171 -123 243 l-41 58 -12 226 c-15 267 -19 315 -45 494 -20
136 -58 306 -85 383 -20 56 -39 288 -30 361 6 42 15 65 34 87 26 27 33 30 142
39 124 11 150 16 220 49 57 26 73 26 105 -1 21 -19 31 -44 50 -133 13 -60 53
-211 89 -335 35 -124 71 -261 80 -305 25 -133 95 -321 143 -383 35 -46 76
-140 112 -257 45 -146 60 -230 77 -415 8 -91 37 -307 64 -480 68 -433 88 -570
96 -675 3 -49 12 -100 20 -111 18 -30 60 -39 91 -18 l26 16 -7 147 c-15 305
-46 635 -71 756 -15 66 -46 217 -70 335 -50 243 -121 512 -194 741 -61 192
-69 222 -141 544 -32 143 -68 282 -80 309 -30 70 -81 246 -74 257 3 5 13 9 23
9 35 0 54 35 47 85 -3 25 -9 66 -12 93 -4 26 -13 56 -20 67 -8 11 -14 38 -14
62 0 61 -45 97 -90 73 -12 -7 -24 -9 -27 -6 -3 2 -15 49 -28 103 -30 124 -71
253 -89 276 -8 10 -32 21 -54 24 -34 5 -42 2 -61 -23 -29 -36 -24 -80 19 -189
17 -42 35 -110 41 -151 11 -70 10 -78 -8 -102 -32 -43 -60 -52 -164 -52 -125
0 -187 18 -243 73 -45 43 -66 91 -66 157 -1 19 -8 71 -16 115 -8 44 -19 116
-25 160 -16 130 -100 284 -188 343 -60 40 -114 52 -292 61 -215 12 -241 29
-253 171 -4 41 -9 87 -12 102 -4 21 1 33 21 52 16 15 22 27 15 31 -21 13 -9
37 28 52 48 20 52 28 50 88 0 28 5 65 13 84 11 27 11 35 2 38 -15 5 -18 43 -3
43 6 0 10 5 10 10 0 6 -8 10 -19 10 -27 0 -47 51 -30 78 10 16 9 28 -5 67 -17
43 -20 46 -46 40 -22 -5 -31 -1 -44 17 -19 26 -21 58 -5 58 7 0 0 11 -15 25
-14 13 -26 31 -26 39 0 35 -26 67 -73 91 l-50 25 -34 -21 c-27 -17 -36 -19
-48 -9 -8 7 -15 21 -15 31 0 14 -7 19 -28 19 -17 0 -37 9 -48 21 -23 26 -67
49 -91 49 -10 0 -35 -9 -56 -19z m-88 -2162 c24 -26 28 -64 35 -299 6 -180 18
-264 57 -392 30 -97 32 -217 5 -271 -11 -22 -37 -51 -59 -65 -34 -22 -53 -27
-133 -30 -107 -5 -254 10 -334 34 -83 25 -133 79 -153 169 -24 107 -31 194
-18 242 9 34 23 51 64 82 29 21 72 60 97 88 82 89 196 227 235 283 82 117 111
152 135 165 35 19 46 18 69 -6z"/>
<path d="M9555 10848 l-48 -62 27 -23 c34 -29 37 -29 61 7 11 16 24 30 29 30
13 0 76 -49 76 -60 0 -11 -229 -304 -241 -309 -6 -1 -19 5 -31 15 -20 19 -20
18 -44 -11 -23 -29 -23 -30 -5 -45 11 -8 54 -42 96 -75 l77 -59 24 27 24 28
-26 22 -25 22 121 155 c67 85 123 156 125 158 2 2 22 -11 44 -28 l40 -33 -27
-34 -26 -35 28 -24 c15 -14 31 -22 35 -20 4 3 28 31 54 64 l46 60 -187 146
c-103 80 -190 146 -193 146 -3 0 -27 -28 -54 -62z"/>
<path d="M2610 10729 c-41 -34 -77 -65 -79 -71 -2 -5 7 -20 20 -34 21 -23 24
-23 41 -7 22 20 8 35 158 -156 l114 -144 -22 -17 -22 -18 21 -26 c11 -14 24
-26 29 -26 4 0 45 30 89 66 82 65 84 70 53 106 -13 15 -17 15 -37 2 -22 -14
-25 -11 -136 128 -62 79 -117 149 -122 156 -7 8 -4 19 7 31 17 18 17 21 1 45
-10 14 -22 26 -29 26 -6 -1 -45 -28 -86 -61z"/>
<path d="M10496 10074 c-27 -24 -28 -26 -10 -45 21 -24 36 -8 -152 -162 l-141
-115 -22 21 -21 21 -26 -26 -26 -26 67 -81 c37 -45 69 -81 73 -81 3 0 16 10
28 21 19 17 21 26 13 41 -7 14 -7 23 1 33 16 20 120 99 124 94 1 -2 33 -41 70
-86 l67 -82 -67 -55 c-63 -52 -69 -55 -86 -40 -16 15 -19 15 -43 0 -14 -9 -25
-20 -25 -25 0 -5 30 -46 66 -90 l65 -82 30 22 c29 20 29 22 14 46 -9 14 -15
26 -13 27 2 2 66 54 143 116 77 62 146 118 153 124 10 7 18 4 30 -11 l17 -22
29 24 30 24 -64 78 c-35 43 -67 82 -70 86 -4 5 -20 -2 -35 -15 -25 -22 -26
-26 -14 -46 7 -11 11 -23 9 -25 -3 -1 -28 -22 -56 -45 -29 -23 -54 -42 -57
-42 -9 0 -138 163 -135 170 5 12 101 90 112 90 5 0 15 -8 22 -17 12 -17 15
-16 40 9 l28 27 -64 78 c-35 43 -66 81 -69 85 -3 4 -19 -5 -35 -18z"/>
<path d="M1884 10037 c-63 -47 -108 -103 -130 -164 -18 -52 -17 -70 7 -119 44
-91 132 -107 232 -43 29 18 74 44 100 58 l48 24 27 -20 c51 -38 38 -96 -34
-163 -49 -45 -59 -47 -86 -23 -18 16 -20 15 -46 -11 l-27 -27 48 -45 49 -44
31 17 c52 26 155 132 182 186 43 87 29 160 -40 213 -27 20 -47 27 -79 26 -47
0 -75 -12 -168 -72 -74 -48 -119 -53 -144 -15 -22 33 -12 66 32 115 38 42 64
50 84 25 18 -21 26 -19 50 15 l21 30 -37 32 c-57 51 -57 51 -120 5z"/>
<path d="M1222 9083 c-43 -21 -65 -51 -147 -202 l-68 -124 23 -19 c23 -18 50
-24 50 -10 1 37 22 30 193 -63 165 -90 176 -98 166 -117 -10 -18 -8 -24 12
-39 13 -10 29 -19 34 -19 6 0 33 43 62 96 l52 95 -31 19 c-32 19 -32 19 -47
-3 -8 -12 -16 -24 -17 -26 -2 -2 -32 13 -68 33 l-66 37 20 39 c23 45 18 44
159 30 112 -10 132 -4 161 56 26 57 25 68 -5 82 -23 11 -29 9 -48 -13 -21 -25
-24 -25 -113 -19 l-92 7 -5 38 c-7 52 -39 93 -90 118 -52 25 -90 26 -135 4z
m109 -132 c16 -16 29 -39 29 -51 0 -22 -46 -120 -56 -120 -4 0 -40 18 -80 41
l-74 41 22 39 c35 62 55 79 94 79 26 0 43 -8 65 -29z"/>
<path d="M11262 8992 c-23 -11 -31 -21 -26 -31 3 -9 8 -21 10 -26 2 -6 -75
-50 -173 -98 l-177 -89 -16 22 c-16 21 -18 22 -48 6 l-32 -16 101 -203 c56
-111 103 -203 104 -205 4 -5 145 67 145 74 0 11 -31 64 -38 64 -4 -1 -18 -7
-32 -15 -14 -8 -30 -14 -35 -15 -11 0 -102 177 -94 184 9 8 151 77 154 74 1
-2 20 -40 40 -85 l37 -82 32 16 c17 8 33 17 35 19 1 1 -16 39 -40 83 -23 44
-41 82 -38 85 9 8 131 67 134 64 14 -15 84 -171 81 -177 -3 -5 -19 -14 -36
-21 -35 -14 -35 -15 -12 -57 l17 -31 71 36 72 37 -102 201 -101 202 -33 -16z"/>
<path d="M706 8023 c-3 -10 -30 -102 -60 -204 -59 -195 -64 -219 -43 -219 6 0
22 -3 33 -6 17 -4 23 0 28 21 5 18 12 25 21 21 8 -3 94 -29 191 -57 l176 -52
-4 -29 c-4 -25 -1 -29 31 -38 19 -5 36 -8 36 -7 5 7 125 424 125 432 0 9 -150
59 -156 52 -1 -1 -5 -19 -9 -39 -7 -36 -7 -37 35 -48 31 -8 40 -15 36 -28 -39
-134 -50 -168 -57 -176 -6 -7 -152 27 -166 39 -2 1 8 35 22 75 33 96 32 106
-7 114 -38 8 -40 6 -62 -89 -11 -46 -23 -75 -31 -75 -7 0 -42 9 -78 20 l-65
20 28 91 c16 50 31 93 34 96 2 3 21 0 41 -7 20 -7 38 -10 40 -8 2 1 6 19 10
39 l7 36 -63 18 c-35 9 -68 19 -75 22 -7 2 -15 -4 -18 -14z"/>
<path d="M11591 7832 c-60 -30 -73 -58 -81 -179 -8 -120 -18 -150 -56 -159
-57 -14 -98 38 -110 139 l-7 57 32 11 c29 10 31 14 25 43 -9 46 -9 45 -73 28
-57 -15 -60 -18 -66 -52 -17 -100 47 -283 115 -328 29 -20 45 -23 92 -20 101
7 132 54 143 216 8 115 23 145 68 145 40 0 64 -28 78 -88 14 -63 9 -82 -23
-87 -19 -2 -23 -9 -21 -32 3 -45 15 -51 75 -35 l53 14 3 60 c10 193 -119 333
-247 267z"/>
<path d="M440 6843 c0 -21 -3 -68 -7 -105 l-6 -68 36 0 c27 0 37 5 42 21 4 11
12 19 18 16 169 -63 347 -133 347 -137 0 -3 -75 -23 -167 -44 -93 -20 -178
-40 -190 -43 -19 -4 -23 -1 -23 21 0 23 -4 26 -34 26 -39 0 -38 3 -50 -147
l-6 -63 40 0 c33 0 40 3 40 20 0 13 9 22 27 26 15 4 124 33 242 64 l216 57 9
67 c5 39 5 71 0 75 -5 5 -109 50 -231 102 -192 81 -223 97 -223 115 0 16 -8
23 -31 28 -48 9 -49 9 -49 -31z"/>
<path d="M11790 6703 c-23 -8 -60 -45 -75 -74 -8 -14 -23 -63 -34 -109 -12
-46 -29 -92 -38 -102 -16 -18 -48 -23 -78 -12 -37 15 -55 99 -39 183 6 28 10
31 41 31 28 0 34 3 29 16 -3 9 -6 27 -6 40 0 23 -3 24 -60 24 -71 0 -75 -5
-90 -110 -12 -86 1 -186 32 -242 48 -84 169 -101 234 -33 23 25 37 55 53 117
31 120 49 152 87 156 49 5 74 -34 74 -114 l0 -64 -35 0 c-34 0 -35 -1 -35 -40
l0 -40 64 0 64 0 13 37 c6 21 12 75 12 120 0 108 -27 167 -93 201 -42 21 -88
27 -120 15z"/>
<path d="M11411 5578 c-5 -35 -13 -82 -17 -104 l-6 -42 36 -4 c21 -2 36 0 36
7 1 30 17 37 50 20 32 -16 32 -18 26 -68 -15 -110 -26 -145 -49 -151 -46 -12
-60 -8 -55 18 4 21 0 25 -30 31 -19 3 -35 5 -37 3 -5 -6 -37 -199 -34 -202 2
-2 18 -6 36 -9 26 -5 32 -3 37 17 5 21 19 24 255 61 l250 40 12 68 c6 38 9 71
6 73 -3 3 -101 58 -218 123 -187 104 -214 122 -217 145 -2 17 -9 26 -22 26
-10 0 -25 3 -33 6 -11 4 -17 -9 -26 -58z m349 -304 c-41 -6 -97 -15 -124 -19
l-49 -7 7 54 c14 108 3 105 129 41 l112 -57 -75 -12z"/>
<path d="M919 5623 c-1 -5 0 -18 1 -30 1 -13 0 -23 -2 -23 -2 0 -91 -11 -198
-25 -107 -14 -196 -25 -196 -25 -1 0 -5 11 -8 25 -5 21 -12 25 -41 25 -32 0
-35 -3 -34 -27 1 -57 24 -198 32 -195 4 1 21 2 38 2 28 0 31 3 26 26 -2 14 0
27 7 30 22 8 386 50 391 46 3 -3 5 -16 5 -30 0 -18 4 -23 16 -18 9 3 24 6 35
6 23 0 23 10 8 132 l-12 88 -33 0 c-19 0 -34 -3 -35 -7z"/>
<path d="M941 4624 c-118 -40 -218 -74 -222 -74 -4 0 -11 9 -14 20 -7 23 -33
26 -59 7 -17 -12 -16 -18 15 -108 18 -51 33 -95 34 -97 1 -1 16 3 34 9 29 10
32 15 28 39 -6 26 -4 27 134 75 77 26 142 46 144 43 2 -2 -48 -69 -112 -148
-63 -80 -126 -159 -139 -176 l-24 -31 27 -79 c14 -43 27 -81 29 -82 1 -2 18 1
38 8 32 10 34 14 26 35 -6 15 -6 27 0 30 13 8 359 125 370 125 4 0 11 -11 14
-24 6 -23 8 -24 39 -14 17 6 33 12 35 13 4 4 -59 188 -68 198 -3 4 -20 2 -37
-5 -26 -11 -29 -16 -21 -37 4 -13 7 -25 6 -26 -7 -6 -301 -105 -303 -103 -1 2
58 80 132 173 73 94 138 178 144 188 7 13 6 32 -6 68 -9 27 -20 49 -23 48 -4
0 -103 -34 -221 -75z"/>
<path d="M11141 4458 c-5 -13 -43 -108 -85 -213 -42 -104 -73 -192 -68 -196
10 -10 133 -59 147 -59 11 0 37 58 30 70 -2 3 -22 12 -44 20 -23 7 -41 16 -41
19 0 15 74 191 80 191 6 0 152 -59 337 -135 30 -13 32 -16 23 -40 -9 -24 -7
-27 23 -40 17 -7 35 -11 38 -7 8 9 79 189 79 200 0 4 -14 13 -32 20 -33 12
-47 5 -48 -26 0 -17 2 -17 -205 66 -167 67 -174 72 -164 111 2 8 -10 19 -29
27 -31 13 -33 13 -41 -8z"/>
<path d="M1524 3500 c-11 -4 -78 -45 -149 -89 -120 -77 -129 -81 -146 -65 -17
15 -20 15 -47 -2 l-30 -19 55 -85 c30 -47 60 -84 66 -82 7 2 23 10 36 19 17
11 20 18 12 26 -6 6 -11 16 -11 23 0 15 232 164 277 177 46 14 88 -6 118 -58
29 -49 31 -91 6 -124 -10 -13 -76 -61 -147 -107 -127 -82 -129 -83 -146 -63
-13 16 -21 18 -35 10 -47 -27 -47 -25 11 -115 30 -47 59 -86 63 -86 5 0 19 9
32 19 19 15 21 21 13 38 -10 18 1 27 117 101 71 45 145 100 164 121 63 70 58
150 -15 265 -44 68 -107 106 -172 105 -28 0 -60 -4 -72 -9z"/>
<path d="M10590 3360 c-33 -50 -63 -96 -66 -103 -2 -7 10 -21 28 -31 19 -12
33 -15 35 -9 2 6 9 18 16 26 11 15 18 13 72 -21 59 -38 62 -41 123 -169 64
-135 70 -157 50 -169 -7 -5 -5 -11 8 -21 49 -37 49 -37 107 52 l56 84 -31 22
c-30 22 -31 22 -44 4 -8 -10 -16 -17 -18 -14 -2 2 -25 44 -51 93 l-48 88 49
-5 c27 -4 75 -9 108 -12 43 -5 55 -10 47 -18 -18 -18 -13 -32 18 -50 l28 -17
57 86 c32 47 56 87 54 88 -61 40 -61 39 -74 21 -12 -15 -27 -16 -161 -10
l-148 7 -62 40 -62 40 16 25 c16 24 16 26 -8 44 -13 10 -27 19 -31 19 -4 0
-35 -41 -68 -90z"/>
<path d="M2762 2208 c-16 -16 -15 -29 5 -43 13 -10 14 -16 7 -26 -27 -36 -258
-325 -265 -333 -5 -6 -16 -3 -27 7 -18 16 -20 16 -36 -2 -16 -18 -14 -21 59
-81 71 -58 78 -61 93 -46 15 14 14 18 -12 45 l-28 30 63 80 c35 45 66 81 69
81 3 0 41 -29 85 -64 78 -64 79 -65 94 -44 16 24 25 14 -88 101 l-61 47 57 75
c34 43 62 71 68 66 5 -4 45 -36 88 -70 l77 -63 -25 -30 -26 -31 22 -15 c24
-16 22 -17 79 59 l20 27 -143 114 c-169 135 -161 130 -175 116z"/>
<path d="M9557 2182 c-15 -16 -17 -47 -17 -232 0 -283 -3 -278 132 -168 l100
81 34 -39 c33 -38 33 -39 14 -56 -23 -19 -25 -31 -7 -46 9 -8 24 -2 57 25 25
19 56 44 69 54 23 18 23 21 8 36 -14 15 -18 15 -40 0 -22 -14 -25 -14 -50 18
-34 42 -33 48 0 75 24 19 25 22 11 37 -15 14 -19 14 -47 -6 l-30 -22 -103 130
c-57 72 -106 130 -109 130 -3 1 -13 -7 -22 -17z m112 -186 c39 -49 71 -91 71
-95 0 -3 -26 -26 -57 -51 -104 -82 -93 -93 -93 86 0 87 2 155 4 153 2 -2 36
-44 75 -93z"/>
<path d="M9020 1799 c-39 -16 -89 -58 -105 -89 -20 -38 -19 -110 1 -138 18
-26 65 -52 95 -52 15 0 19 -4 15 -16 -28 -74 -9 -163 45 -209 99 -83 317 50
296 181 -11 68 -80 124 -152 124 -22 0 -24 2 -15 26 34 88 -26 185 -114 183
-22 0 -52 -5 -66 -10z m110 -74 c19 -21 22 -32 18 -76 -3 -28 -12 -55 -19 -60
-8 -5 -40 -9 -71 -9 -69 0 -98 21 -98 73 1 82 115 131 170 72z m151 -214 c35
-35 37 -72 9 -119 -27 -44 -100 -78 -144 -65 -60 17 -93 106 -67 177 11 27 29
32 119 35 47 1 57 -3 83 -28z"/>
<path d="M3251 1744 c-59 -30 -114 -93 -156 -179 -52 -105 -46 -192 16 -260
138 -150 325 -102 429 109 58 118 48 220 -27 287 -84 73 -172 87 -262 43z
m177 -48 c39 -20 71 -58 82 -95 11 -38 -8 -119 -41 -177 -33 -58 -108 -132
-147 -145 -99 -33 -216 67 -197 169 15 82 96 204 160 244 36 21 105 24 143 4z"/>
<path d="M3855 1479 c-7 -22 -8 -22 17 -35 15 -8 9 -27 -52 -169 -75 -173 -86
-235 -55 -295 39 -76 178 -133 265 -110 68 18 100 62 174 236 38 87 70 160 71
162 2 2 12 -1 24 -7 16 -9 22 -8 31 8 5 11 10 22 10 24 0 2 -34 19 -76 37 -63
28 -77 31 -85 19 -13 -21 -11 -39 6 -39 30 0 25 -28 -24 -142 -84 -198 -109
-233 -168 -244 -44 -8 -111 17 -149 57 -44 46 -39 96 25 244 29 66 59 135 66
152 13 30 16 32 39 23 21 -8 27 -6 37 11 6 11 9 22 7 24 -4 3 -149 65 -153 65
-2 0 -7 -9 -10 -21z"/>
<path d="M8414 1461 c-111 -65 -123 -193 -25 -285 62 -59 170 -41 248 41 l33
34 11 -28 c17 -44 13 -128 -8 -163 -18 -31 -76 -65 -129 -76 -25 -5 -30 -10
-27 -28 5 -22 8 -23 51 -14 65 12 132 56 159 103 44 78 20 229 -55 339 -53 78
-84 99 -151 103 -48 3 -64 0 -107 -26z m146 -43 c19 -13 47 -44 63 -70 l29
-48 -22 -27 c-28 -35 -82 -72 -118 -79 -44 -9 -86 18 -112 71 -35 72 -12 135
60 164 39 16 65 13 100 -11z"/>
<path d="M7872 1239 c-13 -5 -50 -30 -83 -55 -48 -37 -58 -49 -48 -60 9 -11
19 -9 60 11 26 14 52 25 57 25 9 0 147 -389 140 -394 -1 -2 -26 -11 -54 -20
-43 -14 -51 -20 -47 -36 3 -11 13 -20 22 -19 28 1 255 84 258 94 1 6 -1 16 -6
24 -7 11 -16 11 -57 -3 -26 -9 -51 -13 -55 -9 -4 5 -40 108 -80 231 -41 122
-76 222 -79 221 -3 0 -15 -4 -28 -10z"/>
<path d="M4547 1214 c-15 -15 -7 -44 12 -44 11 0 22 -3 24 -7 3 -5 -21 -102
-53 -218 l-57 -210 -29 0 c-22 -1 -30 -6 -32 -22 -3 -18 5 -24 55 -38 85 -25
107 -24 111 3 3 16 -2 22 -17 22 -11 0 -22 3 -24 8 -4 6 79 327 96 373 6 17
-3 41 93 -258 76 -238 77 -241 107 -247 17 -3 31 -5 32 -4 1 2 30 110 65 241
l64 238 28 -6 c16 -4 28 -2 28 3 0 6 2 17 5 24 4 11 -15 20 -76 37 -44 12 -82
21 -84 19 -1 -2 -6 -13 -9 -25 -5 -16 -3 -23 6 -23 42 -1 41 -13 -9 -199 -26
-99 -50 -181 -53 -181 -3 0 -39 107 -79 238 -41 130 -78 242 -83 248 -4 7 -21
14 -37 17 -16 3 -39 9 -53 12 -13 3 -27 3 -31 -1z"/>
<path d="M5287 1025 c-11 -28 -8 -35 18 -35 31 0 31 12 0 -230 -14 -107 -25
-201 -25 -209 0 -9 -9 -12 -31 -9 -27 4 -30 2 -27 -21 3 -25 7 -27 93 -38 116
-15 216 -16 252 -2 88 33 143 147 143 299 0 95 -30 166 -84 199 -37 23 -135
44 -262 56 -61 6 -72 5 -77 -10z m192 -56 c35 -5 77 -17 92 -25 45 -23 69 -81
69 -167 0 -94 -22 -169 -65 -215 l-33 -37 -90 0 c-50 0 -94 4 -98 8 -5 4 2 90
14 190 30 235 33 257 41 257 3 0 35 -5 70 -11z"/>
<path d="M6725 1003 c-60 -8 -111 -16 -112 -17 -1 -1 0 -12 4 -24 3 -15 13
-22 29 -22 18 0 24 -7 29 -32 14 -77 52 -404 48 -410 -2 -5 -15 -8 -29 -8 -22
0 -24 -3 -18 -22 3 -13 7 -24 9 -25 3 -5 239 28 277 38 108 28 161 142 138
295 -26 171 -96 246 -225 243 -22 -1 -89 -8 -150 -16z m224 -61 c83 -61 118
-265 62 -356 -11 -18 -35 -40 -53 -50 -42 -21 -158 -37 -163 -22 -9 31 -55
429 -50 434 10 10 97 21 139 17 22 -2 51 -12 65 -23z"/>
<path d="M5982 948 c2 -15 11 -24 26 -26 l22 -3 0 -225 0 -224 -25 0 c-20 0
-25 -5 -25 -25 l0 -25 205 0 205 0 0 65 c0 62 -1 65 -24 65 -21 0 -25 -5 -28
-37 l-3 -38 -117 -3 -118 -3 0 111 0 110 105 0 105 0 0 26 0 26 -102 -3 -103
-4 -3 93 -3 92 111 0 110 0 0 -35 c0 -31 3 -35 25 -35 24 0 25 3 25 60 l0 60
-196 0 -195 0 3 -22z"/>
</g>
</svg>
